<?xml version="1.0" standalone="no"?>
<!DOCTYPE svg PUBLIC "-//W3C//DTD SVG 20010904//EN"
 "http://www.w3.org/TR/2001/REC-SVG-20010904/DTD/svg10.dtd">
<svg version="1.0" xmlns="http://www.w3.org/2000/svg"
 width="100.000000pt" height="100.000000pt" viewBox="0 0 100.000000 100.000000"
 preserveAspectRatio="xMidYMid meet">
<metadata>
Created by potrace 1.11, written by Peter Selinger 2001-2013
</metadata>
<g transform="translate(0.000000,100.000000) scale(0.100000,-0.100000)"
fill="#000000" stroke="none">
<path d="M458 517 c-64 -182 -113 -335 -109 -339 3 -4 20 -10 37 -14 35 -7 24
-28 114 231 23 66 66 189 96 274 30 84 54 155 52 156 -12 9 -49 25 -60 25 -8
0 -57 -125 -130 -333z"/>
<path d="M124 648 c-38 -46 -79 -95 -92 -110 -13 -14 -24 -29 -24 -33 0 -11
182 -225 191 -225 5 0 20 9 35 21 l26 21 -62 74 c-35 41 -69 83 -75 92 -11 15
-3 29 57 102 39 47 70 88 70 93 0 9 -40 46 -51 47 -3 0 -37 -37 -75 -82z"/>
<path d="M760 705 l-23 -24 35 -43 c20 -24 46 -54 58 -68 59 -66 60 -61 -19
-154 -39 -46 -71 -87 -71 -91 0 -10 43 -44 55 -44 12 0 188 214 186 225 -3 14
-181 224 -190 224 -4 0 -18 -11 -31 -25z"/>
</g>
</svg>
